<?xml version="1.0" encoding="UTF-8"?>
<svg width="25px" height="26px" viewBox="0 0 25 26" version="1.1" xmlns="http://www.w3.org/2000/svg" xmlns:xlink="http://www.w3.org/1999/xlink">
    <!-- Generator: sketchtool 57.1 (101010) - https://sketch.com -->
    <title>63171135-E7F9-42EA-A18E-7383343C841A</title>
    <desc>Created with sketchtool.</desc>
    <g id="Page-1" stroke="none" stroke-width="1" fill="none" fill-rule="evenodd">
        <g id="Works-Copy-86" transform="translate(-1653.000000, -45.000000)" fill="#FFFFFF" fill-rule="nonzero">
            <g id="Group-8-Copy-2" transform="translate(1653.000000, 35.000000)">
                <g id="shopping-cart-(1)" transform="translate(0.000000, 10.000000)">
                    <path d="M6.89074743,17.1038891 L21.2040945,17.1038891 C22.8270924,17.1038891 24.151117,15.7798645 24.151117,14.1568665 L24.151117,8.13468994 C24.151117,8.12935113 24.151117,8.11867351 24.151117,8.1133347 C24.151117,8.09731828 24.151117,8.08664066 24.151117,8.07062423 C24.151117,8.05994661 24.151117,8.04926899 24.1457782,8.03859138 C24.1457782,8.02791376 24.1404394,8.01189733 24.1404394,8.00121971 C24.1404394,7.99054209 24.1351006,7.97986448 24.1351006,7.96918686 C24.1297618,7.95850924 24.1297618,7.94783162 24.124423,7.9318152 C24.1190842,7.92113758 24.1190842,7.91045996 24.1137454,7.89978234 C24.1084066,7.88910472 24.1084066,7.8784271 24.1030678,7.86774949 C24.097729,7.85707187 24.0923901,7.84639425 24.0870513,7.83037782 C24.0817125,7.81970021 24.0763737,7.80902259 24.0710349,7.80368378 C24.0656961,7.79300616 24.0603573,7.78232854 24.0550185,7.77165092 C24.0496797,7.76097331 24.0443409,7.7556345 24.0390021,7.74495688 C24.0336632,7.73427926 24.0229856,7.72360164 24.0176468,7.71292402 C24.012308,7.70224641 24.0069692,7.6969076 23.9962916,7.68622998 C23.9909528,7.67555236 23.9802752,7.67021355 23.9749363,7.65953593 C23.9695975,7.64885832 23.9589199,7.64351951 23.9535811,7.63284189 C23.9482423,7.62216427 23.9375647,7.61682546 23.9322259,7.61148665 C23.9215483,7.60080903 23.9162094,7.59547023 23.9055318,7.58479261 C23.8948542,7.5794538 23.8895154,7.56877618 23.8788378,7.56343737 C23.8681602,7.55809856 23.8574825,7.54742094 23.8468049,7.54208214 C23.8361273,7.53674333 23.8307885,7.53140452 23.8201109,7.52606571 C23.8094333,7.5207269 23.7987556,7.51538809 23.788078,7.50471047 C23.7774004,7.49937166 23.7667228,7.49403285 23.7560452,7.48869405 C23.7453676,7.48335524 23.7346899,7.47801643 23.7240123,7.47267762 C23.7133347,7.46733881 23.7026571,7.462 23.6919795,7.45666119 C23.6813018,7.45132238 23.6706242,7.45132238 23.6599466,7.44598357 C23.649269,7.44064476 23.6332526,7.43530595 23.6225749,7.43530595 C23.6118973,7.43530595 23.6012197,7.42996715 23.5958809,7.42996715 C23.5798645,7.42462834 23.5691869,7.42462834 23.5531704,7.42462834 C23.5478316,7.42462834 23.5424928,7.41928953 23.5318152,7.41928953 L5.39054209,4.91538809 L5.39054209,2.38479261 C5.39054209,2.35809856 5.39054209,2.33140452 5.38520329,2.31004928 C5.38520329,2.30471047 5.38520329,2.29937166 5.37986448,2.28869405 C5.37986448,2.27267762 5.37452567,2.25666119 5.37452567,2.24064476 C5.36918686,2.22462834 5.36918686,2.21395072 5.36384805,2.19793429 C5.36384805,2.18725667 5.35850924,2.18191786 5.35850924,2.17124025 C5.35317043,2.15522382 5.34783162,2.13920739 5.34249281,2.12319097 C5.34249281,2.11785216 5.337154,2.10717454 5.337154,2.10183573 C5.3318152,2.0858193 5.32647639,2.07514168 5.31579877,2.05912526 C5.31045996,2.05378645 5.31045996,2.04310883 5.30512115,2.03777002 C5.29978234,2.0270924 5.29444353,2.01641478 5.28376591,2.00573717 C5.2784271,1.99505955 5.2730883,1.98972074 5.26774949,1.97904312 C5.26241068,1.9683655 5.25707187,1.96302669 5.25173306,1.95234908 C5.24639425,1.94167146 5.23571663,1.93099384 5.23037782,1.92031622 C5.22503901,1.91497741 5.21970021,1.9096386 5.2143614,1.90429979 C5.20368378,1.89362218 5.19300616,1.88294456 5.18232854,1.87226694 C5.17698973,1.86692813 5.17165092,1.86158932 5.16631211,1.85625051 C5.1556345,1.8455729 5.14495688,1.83489528 5.12894045,1.82421766 C5.12360164,1.81887885 5.11292402,1.81354004 5.10758522,1.80820123 C5.0969076,1.79752361 5.08622998,1.7921848 5.07555236,1.78150719 C5.05953593,1.77082957 5.04351951,1.76015195 5.03284189,1.75481314 C5.02750308,1.74947433 5.02216427,1.74947433 5.01682546,1.74413552 C4.99547023,1.73345791 4.96877618,1.72278029 4.94742094,1.71210267 L1.01271869,0.0570718686 C0.644340862,-0.0977535934 0.222574949,0.0730882957 0.0677494867,0.441466119 C-0.0870759754,0.809843943 0.0837659138,1.23160986 0.452143737,1.38643532 L3.94372485,2.85994661 L3.94372485,6.12729774 L3.94372485,6.64516222 L3.94372485,10.6172361 L3.94372485,14.1675441 L3.94372485,18.6521437 C3.94372485,20.1470103 5.06487474,21.385614 6.51169199,21.5724723 C6.25009035,22.0102546 6.09526489,22.5227803 6.09526489,23.0673388 C6.09526489,24.6743203 7.4032731,25.9769897 9.00491581,25.9769897 C10.6065585,25.9769897 11.9145667,24.6689815 11.9145667,23.0673388 C11.9145667,22.5334579 11.7704189,22.026271 11.5141561,21.5991663 L17.9954702,21.5991663 C17.7392074,22.0316099 17.5950595,22.5334579 17.5950595,23.0673388 C17.5950595,24.6743203 18.9030678,25.9769897 20.5047105,25.9769897 C22.1063532,25.9769897 23.4143614,24.6689815 23.4143614,23.0673388 C23.4143614,21.4656961 22.1063532,20.1576879 20.5047105,20.1576879 L6.89074743,20.1576879 C6.05789322,20.1576879 5.38520329,19.4796591 5.38520329,18.6521437 L5.38520329,16.6981396 C5.82298563,16.9544025 6.3408501,17.1038891 6.89074743,17.1038891 Z M10.4784271,23.062 C10.4784271,23.873499 9.81641478,24.5301725 9.01025462,24.5301725 C8.20409446,24.5301725 7.54208214,23.8681602 7.54208214,23.062 C7.54208214,22.2558398 8.20409446,21.5938275 9.01025462,21.5938275 C9.81641478,21.5938275 10.4784271,22.250501 10.4784271,23.062 Z M21.9782218,23.062 C21.9782218,23.873499 21.3162094,24.5301725 20.5100493,24.5301725 C19.7038891,24.5301725 19.0418768,23.8681602 19.0418768,23.062 C19.0418768,22.2558398 19.7038891,21.5938275 20.5100493,21.5938275 C21.3162094,21.5938275 21.9782218,22.250501 21.9782218,23.062 Z M21.2040945,15.6624107 L6.89074743,15.6624107 C6.05789322,15.6624107 5.38520329,14.9843819 5.38520329,14.1568665 L5.38520329,10.6065585 L5.38520329,6.6344846 L5.38520329,6.36754415 L22.7096386,8.75399179 L22.7096386,14.1515277 C22.7096386,14.9897207 22.0316099,15.6624107 21.2040945,15.6624107 Z" id="Shape"></path>
                </g>
            </g>
        </g>
    </g>
</svg>